<svg width="1147" height="878" viewBox="0 0 1147 878" fill="none" xmlns="http://www.w3.org/2000/svg">
<path opacity="0.2" d="M386.182 250.52C387.456 255.276 394.505 275.672 400.87 293.849C407.499 312.784 423.979 326.532 443.777 329.772L449.153 330.651C460.361 332.485 471.835 329.716 480.972 322.972C485.402 319.702 490.43 317.332 495.772 315.997L502.588 314.293C513.841 311.48 525.581 311.224 536.945 313.545L578.963 322.126C586.527 323.671 594.393 322.468 601.15 318.734L616.202 310.416C623.156 306.573 625.801 297.902 622.175 290.832C619.986 286.562 620.017 281.493 622.258 277.25L624.033 273.891C629.032 264.429 640.113 259.935 650.291 263.243L660.881 266.684C668.518 269.166 676.775 268.965 684.282 266.114L739.454 245.163C747.548 242.089 755.066 237.673 761.691 232.099L776.753 219.428C780.905 215.935 786.157 214.02 791.583 214.02C794.941 214.02 798.26 213.285 801.305 211.868L818.782 203.732C822.515 201.994 823.998 197.459 822.014 193.85C820.869 191.769 818.761 190.396 816.395 190.19L805.935 189.281C789.363 187.84 778.103 171.794 782.383 155.72L789.198 130.127C793.812 112.799 807.519 99.3734 824.938 95.1197L829.424 94.0244C836.194 92.3713 842.562 89.3759 848.153 85.2157L851.85 82.464C857.927 77.9419 862.482 71.6761 864.909 64.5008L869.805 50.0235C871.554 44.8534 870.09 39.1383 866.072 35.4453C859.829 29.7089 860.189 19.7518 866.83 14.4814L877.987 5.62681C882.945 1.69145 889.171 -0.296808 895.492 0.0359111L958.927 3.37456C973.023 4.11649 986.466 9.55524 997.113 18.8242L1010.66 30.6182C1018.46 37.4112 1029.19 39.7641 1039.12 36.8615L1045.43 35.0171C1051.79 33.1584 1058.65 34.7841 1063.5 39.2964C1071.07 46.3361 1082.9 45.9457 1089.99 38.4225L1106.25 21.1594C1108.44 18.8365 1111.49 17.5196 1114.68 17.5196C1119.25 17.5196 1123.38 20.1991 1125.25 24.3629L1144.57 67.4527C1146.83 72.5053 1146.47 78.3474 1143.61 83.0875L1135.09 97.2032C1133.63 99.6285 1130.26 99.997 1128.3 97.9455C1125.83 95.3453 1121.44 96.7505 1120.94 100.306L1115.93 135.651C1114.85 143.302 1109.76 149.789 1102.58 152.659L1077.37 162.744C1068.67 166.224 1060.78 171.452 1054.18 178.105L1023.97 208.57C1011 221.648 1001.63 237.854 996.762 255.618L993.266 268.386C992.879 269.801 992.29 271.153 991.518 272.4L988.188 277.779C982.448 287.051 968.412 285.028 965.465 274.529C965.277 273.858 965.147 273.171 965.078 272.477L963.334 255.04C962.599 247.692 952.629 246.025 949.543 252.734C949.303 253.256 949.126 253.805 949.016 254.369L941.602 292.217C940.337 298.673 937.671 304.773 933.792 310.087L921.507 326.911C918.57 330.934 918.26 336.305 920.716 340.639C923.388 345.353 928.759 347.849 934.085 346.85L936.93 346.317C944.154 344.962 951.386 348.635 954.554 355.267C959.579 365.789 973.733 367.729 981.404 358.947L992.41 346.345C996.938 341.161 1003.8 338.654 1010.61 339.7C1024.31 341.809 1031.82 356.835 1025.27 369.06L998.782 418.526C994.664 426.216 1000.24 435.52 1008.96 435.52H1021.16C1024.88 435.52 1027.15 439.605 1025.19 442.769C1024.02 444.667 1024.32 447.127 1025.93 448.68L1049.12 471.155C1053.45 475.355 1056.89 480.386 1059.23 485.946L1066.47 503.121C1073.54 519.884 1077.18 537.891 1077.18 556.083V591.553C1077.18 603.427 1074.98 615.199 1070.68 626.27L1068.43 632.066C1065.62 639.305 1064.18 647.004 1064.18 654.769C1064.18 669.468 1059.02 683.701 1049.6 694.985L1024.3 725.296C1017.24 733.754 1009.29 741.424 1000.58 748.174L959.744 779.832C952.717 785.279 945.207 790.072 937.307 794.151L900.085 813.37C882.83 822.28 862.392 822.565 844.895 814.141C836.527 810.112 827.359 808.02 818.072 808.02H808.531C791.877 808.02 775.468 812.033 760.694 819.72L746.739 826.982C730.568 835.396 711.924 837.757 694.166 833.639C689.52 832.562 684.985 831.052 680.62 829.13L649.642 815.488C638.458 810.563 626.371 808.02 614.15 808.02H589.587C583.534 808.02 577.698 810.271 573.213 814.335C567.528 819.488 564.599 827.016 565.308 834.655L566.592 848.501C567.792 861.43 559.32 873.279 546.698 876.326C542.106 877.434 537.312 877.284 532.815 875.841C522.875 872.651 504.439 866.593 493.182 862.02C487.74 859.809 480.274 854.996 472.79 849.606C454.082 836.132 421.201 845.547 408.182 826.52C401.682 817.02 416.682 815.52 419.682 798.02C422.682 780.52 421.682 750.02 417.182 739.52C412.682 729.02 400.682 715.52 383.182 716.52C365.682 717.52 365.682 733.6 353.182 736.02C340.682 738.439 317.682 755.52 302.182 755.52C286.682 755.52 275.682 754.52 261.182 760.02C246.682 765.52 232.682 786.52 224.682 788.02C216.682 789.52 217.682 783.52 210.182 783.52C201.793 783.52 192.797 786.469 184.818 783.878C162.577 776.654 117.688 761.783 100.682 754.02C86.8152 747.689 74.039 721.731 66.0787 702.112C60.4834 688.323 46.2915 681.169 34.1818 672.52C31.3151 670.472 29.6224 665.825 28.6229 661.051C27.1922 654.217 37.8748 651.264 39.6818 644.52C41.2895 638.52 20.6818 617.02 27.1818 612.02C33.6818 607.02 62.1818 626.02 70.1818 620.02C78.1818 614.02 96.5079 594.52 88.6818 574.52C80.8557 554.52 69.6818 559.52 62.1818 551.52C61.8399 551.155 61.5062 550.75 61.1808 550.308C47.1427 531.265 44.0457 505.956 31.5892 485.843C30.446 483.997 29.4506 482.351 28.6818 481.02C26.9199 477.968 25.3613 472.44 24.0571 466.341C20.3597 449.051 5.25803 435.598 0.681825 418.52C-1.99765 408.52 3.68182 388.52 9.68182 382.52C10.3987 381.803 11.2512 381.15 12.1967 380.557C21.6069 374.649 25.9497 359.895 36.6818 357.02C48.3362 353.897 154.811 343.593 145.182 319.52C141.182 309.52 111.254 268.02 118.182 256.02C119.297 254.088 121.412 252.818 124.178 252.045C146.173 245.898 155.904 222.938 175.682 211.52C183.682 206.901 222.94 209.52 224.682 203.02C226.423 196.52 214.682 186.52 214.682 179.02C214.682 171.52 226.506 158.52 229.682 153.02C232.857 147.52 228.182 127.582 238.682 121.52C249.182 115.457 265.682 125.663 273.682 123.52C281.682 121.376 286.682 116.02 291.182 116.02C293.414 116.02 303.217 128.327 316.182 140.02C329.355 151.901 345.678 163.22 346.182 169.52C347.182 182.02 318.074 217.52 319.682 223.52C321.29 229.52 329.182 240.52 334.682 240.52C340.182 240.52 350.182 227.02 359.682 229.52C369.182 232.02 383.77 241.52 386.182 250.52Z" fill="#FFC7C7"/>
</svg>
